<svg width="128" height="128" viewBox="0 0 128 128" fill="none" xmlns="http://www.w3.org/2000/svg">
<rect width="128" height="128" fill="#F5F5F5"/>
<g clip-path="url(#clip0_5_2)">
<rect width="128" height="128" fill="#DE5B31"/>
<path d="M46.3396 18.3563C46.8396 18.8563 47.0396 20.9563 46.8396 23.0563C46.5396 26.4563 46.1396 26.9563 43.8396 27.2563C42.4396 27.4563 40.6396 28.2563 40.0396 28.9563C39.3396 29.7563 38.6396 35.0563 38.3396 40.6562C37.7396 53.2563 36.7396 56.6563 32.9396 59.9563L29.8397 62.4563L32.8396 64.9563C37.0396 68.4563 37.8397 71.4563 38.2397 84.6562C38.7397 97.2563 39.4396 99.1562 43.8396 99.6562C46.2396 99.9563 46.5396 100.456 46.8396 104.256C47.1396 108.056 46.9396 108.556 44.3396 109.556C42.8396 110.156 40.0396 110.256 38.0396 109.956C28.4396 108.156 26.0397 103.756 25.9397 87.6562C25.9397 74.5562 24.7396 70.4563 20.2396 68.5563C14.7396 66.0563 14.5397 58.5562 19.9397 56.6562C24.3397 55.1562 25.2397 52.2563 26.0397 38.4563C26.3397 31.5563 27.1396 25.0563 27.7396 23.9563C29.3396 20.9563 32.4396 18.4563 35.6396 17.4563C38.7396 16.5563 44.9396 17.0563 46.3396 18.3563Z" fill="white"/>
<path d="M96.3397 19.1638C101.14 22.2638 102.14 25.2638 102.44 38.0638C102.84 52.2638 103.74 55.4638 107.84 56.2638C113.24 57.3638 114.24 66.6638 109.14 67.9638C104.84 69.0638 103.34 73.7638 102.64 88.0638C102.34 95.2638 101.44 102.064 100.84 103.264C97.9397 108.564 89.8397 111.764 84.2397 109.664C81.7397 108.664 81.5397 108.164 81.8397 104.364C82.1397 100.664 82.4397 100.064 84.6397 99.7638C89.1397 99.0638 89.6397 97.8638 89.6397 88.4638C89.6397 76.2638 91.1397 70.0638 95.1397 65.7638L98.3397 62.1638L95.2397 60.0638C90.9397 57.2638 89.7397 52.8638 89.7397 40.4638C89.6397 29.1638 89.2397 28.0638 84.6397 27.3638C82.4397 27.0638 82.1397 26.4638 81.8397 22.7638C81.5397 19.1638 81.8397 18.3638 83.8397 17.5638C86.7397 16.3638 93.4397 17.1638 96.3397 19.1638Z" fill="white"/>
</g>
<defs>
<clipPath id="clip0_5_2">
<rect width="128" height="128" fill="white"/>
</clipPath>
</defs>
</svg>
